# xmcd CD database file
#
# Track frame offsets:
#	150
#	25965
#	39197
#	59105
#	82365
#	105945
#	128085
#	151082
#	171125
#	189775
#	205452
#	227057
#
# Disc length: 3278 seconds
#
# Revision: 1
# Processed by: cddbd v1.5.1PL0 Copyright (c) Steve Scherf et al.
# Submitted via: CDex 1.51
#
DISCID=970ccc0c
DTITLE=さくら(丹下桜) - Cherry A La Mode Collection 1
DYEAR=2005
DGENRE=JPop
TTITLE0=ハミングバード -Album mix-
TTITLE1=Blue sky in the white canvas. -Album version-
TTITLE2=Loving you
TTITLE3=きみだと分かるよ
TTITLE4=月のうさぎ
TTITLE5=Be ambitious!
TTITLE6=Will
TTITLE7=NA・GI・SA
TTITLE8=美ら唄
TTITLE9=Go for now!
TTITLE10=めぐり逢う私たち
TTITLE11=familiar -Album mix-
EXTD=YEAR: 2005
EXTT0=
EXTT1=
EXTT2=
EXTT3=
EXTT4=
EXTT5=
EXTT6=
EXTT7=
EXTT8=
EXTT9=
EXTT10=
EXTT11=
PLAYORDER=
